<svg xmlns="http://www.w3.org/2000/svg" width="512" height="512" viewBox="0 0 1050 1050">
  <defs>
    <linearGradient id="orangeGradient" x1="0%" y1="0%" x2="100%" y2="100%">
      <stop offset="0%" style="stop-color:#F25129;stop-opacity:1" />
      <stop offset="100%" style="stop-color:#FF6B35;stop-opacity:1" />
    </linearGradient>
  </defs>
  
  <!-- Background -->
  <rect width="1050" height="1050" fill="url(#orangeGradient)" rx="200"/>
  
  <!-- Three Female Figures (simplified) -->
  <!-- Left Figure -->
  <g transform="translate(200, 300)">
    <ellipse cx="0" cy="0" rx="60" ry="90" fill="#F5E6D3" stroke="#E6D3C0" stroke-width="6"/>
    <circle cx="0" cy="-70" r="35" fill="#F5E6D3" stroke="#E6D3C0" stroke-width="6"/>
    <ellipse cx="-70" cy="-10" rx="18" ry="60" fill="#F5E6D3" stroke="#E6D3C0" stroke-width="3"/>
    <ellipse cx="70" cy="-10" rx="18" ry="60" fill="#F5E6D3" stroke="#E6D3C0" stroke-width="3"/>
    <rect x="55" y="-40" width="25" height="12" fill="#C0C0C0"/>
    <rect x="65" y="-35" width="10" height="25" fill="#C0C0C0"/>
  </g>
  
  <!-- Middle Figure -->
  <g transform="translate(525, 300)">
    <ellipse cx="0" cy="0" rx="70" ry="100" fill="#F5E6D3" stroke="#E6D3C0" stroke-width="6"/>
    <circle cx="0" cy="-80" r="40" fill="#F5E6D3" stroke="#E6D3C0" stroke-width="6"/>
    <ellipse cx="-80" cy="-5" rx="20" ry="70" fill="#F5E6D3" stroke="#E6D3C0" stroke-width="3"/>
    <ellipse cx="80" cy="-5" rx="20" ry="70" fill="#F5E6D3" stroke="#E6D3C0" stroke-width="3"/>
  </g>
  
  <!-- Right Figure -->
  <g transform="translate(850, 300)">
    <ellipse cx="0" cy="0" rx="60" ry="90" fill="#F5E6D3" stroke="#E6D3C0" stroke-width="6"/>
    <circle cx="0" cy="-70" r="35" fill="#F5E6D3" stroke="#E6D3C0" stroke-width="6"/>
    <ellipse cx="-70" cy="-10" rx="18" ry="60" fill="#F5E6D3" stroke="#E6D3C0" stroke-width="3"/>
    <ellipse cx="70" cy="-10" rx="18" ry="60" fill="#F5E6D3" stroke="#E6D3C0" stroke-width="3"/>
    <rect x="-80" y="-40" width="25" height="12" fill="#C0C0C0"/>
    <rect x="-75" y="-35" width="10" height="25" fill="#C0C0C0"/>
  </g>
  
  <!-- Brand Name -->
  <text x="525" y="600" text-anchor="middle" font-family="Arial, sans-serif" font-size="80" font-weight="bold" fill="white">MOMS FITNESS MOJO</text>
  
  <!-- Tagline -->
  <text x="525" y="700" text-anchor="middle" font-family="Arial, sans-serif" font-size="40" font-weight="600" fill="white">FIT, FIERCE, AND FABULOUS – TOGETHER</text>
</svg>
