<svg xmlns="http://www.w3.org/2000/svg" width="1200" height="630" viewBox="0 0 1200 630">
  <defs>
    <linearGradient id="orangeGradient" x1="0%" y1="0%" x2="100%" y2="100%">
      <stop offset="0%" style="stop-color:#F25129;stop-opacity:1" />
      <stop offset="100%" style="stop-color:#FF6B35;stop-opacity:1" />
    </linearGradient>
  </defs>
  
  <!-- Background -->
  <rect width="1200" height="630" fill="url(#orangeGradient)"/>
  
  <!-- Three Female Figures -->
  <!-- Left Figure -->
  <g transform="translate(200, 200)">
    <ellipse cx="0" cy="0" rx="80" ry="120" fill="#F5E6D3" stroke="#E6D3C0" stroke-width="8"/>
    <circle cx="0" cy="-90" r="45" fill="#F5E6D3" stroke="#E6D3C0" stroke-width="8"/>
    <ellipse cx="-90" cy="-10" rx="25" ry="80" fill="#F5E6D3" stroke="#E6D3C0" stroke-width="4"/>
    <ellipse cx="90" cy="-10" rx="25" ry="80" fill="#F5E6D3" stroke="#E6D3C0" stroke-width="4"/>
    <rect x="70" y="-50" width="30" height="15" fill="#C0C0C0"/>
    <rect x="80" y="-45" width="15" height="30" fill="#C0C0C0"/>
  </g>
  
  <!-- Middle Figure -->
  <g transform="translate(600, 200)">
    <ellipse cx="0" cy="0" rx="90" ry="130" fill="#F5E6D3" stroke="#E6D3C0" stroke-width="8"/>
    <circle cx="0" cy="-100" r="50" fill="#F5E6D3" stroke="#E6D3C0" stroke-width="8"/>
    <ellipse cx="-100" cy="-10" rx="30" ry="90" fill="#F5E6D3" stroke="#E6D3C0" stroke-width="4"/>
    <ellipse cx="100" cy="-10" rx="30" ry="90" fill="#F5E6D3" stroke="#E6D3C0" stroke-width="4"/>
  </g>
  
  <!-- Right Figure -->
  <g transform="translate(1000, 200)">
    <ellipse cx="0" cy="0" rx="80" ry="120" fill="#F5E6D3" stroke="#E6D3C0" stroke-width="8"/>
    <circle cx="0" cy="-90" r="45" fill="#F5E6D3" stroke="#E6D3C0" stroke-width="8"/>
    <ellipse cx="-90" cy="-10" rx="25" ry="80" fill="#F5E6D3" stroke="#E6D3C0" stroke-width="4"/>
    <ellipse cx="90" cy="-10" rx="25" ry="80" fill="#F5E6D3" stroke="#E6D3C0" stroke-width="4"/>
    <rect x="-100" y="-50" width="30" height="15" fill="#C0C0C0"/>
    <rect x="-95" y="-45" width="15" height="30" fill="#C0C0C0"/>
  </g>
  
  <!-- Brand Name -->
  <text x="600" y="450" text-anchor="middle" font-family="Arial, sans-serif" font-size="60" font-weight="bold" fill="white">MOMS FITNESS MOJO</text>
  
  <!-- Tagline -->
  <text x="600" y="520" text-anchor="middle" font-family="Arial, sans-serif" font-size="30" font-weight="600" fill="white">FIT, FIERCE, AND FABULOUS – TOGETHER</text>
</svg>
